<svg xmlns="http://www.w3.org/2000/svg" viewBox="0 0 67 67" width="67" height="67"><defs><clipPath clipPathUnits="userSpaceOnUse" id="cp1"><path d="M-767 -2079L673 -2079L673 2955L-767 2955Z"></path></clipPath></defs><style>
		tspan { white-space:pre }
		.shp0 { fill: none;stroke: #5e5e5e } 
		.shp1 { fill: #5e5e5e } 
	</style><g id="Welcome - 3 - Static" clip-path="url(#cp1)"><g id="Business Benefits"><g id="Group 11"><g id="Business/Static/Gain Control"><g id="Group 2"><path id="Oval Copy 8" class="shp0" d="M33.5 66C51.45 66 66 51.45 66 33.5C66 15.55 51.45 1 33.5 1C15.55 1 1 15.55 1 33.5C1 51.45 15.55 66 33.5 66Z"></path><g id="Unknown-28"><path id="Shape" fill-rule="evenodd" class="shp1" d="M45.6 39.33C45.6 41.3 44 42.98 41.96 42.98C39.92 42.98 38.31 41.37 38.31 39.33C38.31 37.36 39.99 35.69 41.96 35.69C43.93 35.69 45.53 37.36 45.6 39.33ZM44.15 39.41C44.15 38.24 43.2 37.22 41.96 37.22C40.72 37.22 39.77 38.17 39.77 39.41C39.77 40.57 40.79 41.59 41.96 41.59C43.12 41.59 44.07 40.57 44.15 39.41Z"></path><path id="Shape" fill-rule="evenodd" class="shp1" d="M51 40.72C51 41.08 50.71 41.37 50.42 41.45L48.37 41.96C48.37 42.03 48.3 42.1 48.3 42.18L49.47 44C49.69 44.29 49.61 44.66 49.4 44.87L47.5 46.77C46.84 47.43 46.04 46.41 44.8 45.75C44.73 45.75 44.66 45.82 44.58 45.82C44.07 47.28 44.29 48.52 43.34 48.52L42.47 48.52L42.47 50.27C42.47 50.71 42.18 51 41.74 51L16.73 51C16.29 51 16 50.71 16 50.27L16 44.87C16.22 38.75 21.1 33.94 27.08 33.94L31.31 33.94C32.41 33.94 33.43 34.08 34.37 34.37C34.37 34.23 34.45 34.01 34.59 33.86L36.49 31.97C36.71 31.75 37.07 31.75 37.36 31.9L39.19 32.99C39.26 32.99 39.33 32.92 39.41 32.92C39.92 31.46 39.7 30.22 40.65 30.22L43.27 30.22C44.15 30.22 44 31.46 44.44 32.84C44.51 32.84 44.58 32.92 44.66 32.92C45.9 32.26 46.7 31.24 47.35 31.9L49.32 33.86C49.54 34.08 49.54 34.45 49.4 34.74L48.3 36.56C48.3 36.64 48.37 36.71 48.37 36.78C49.76 37.29 51 37.07 51 38.02L51 40.72ZM40.94 49.54L40.94 48.52L40.57 48.52C40.21 48.52 39.92 48.3 39.84 47.94L39.33 45.82C39.26 45.82 39.19 45.75 39.11 45.75L37.29 46.92C37 47.14 36.64 47.06 36.42 46.84L34.52 44.95C33.86 44.29 34.89 43.56 35.54 42.25C35.54 42.18 35.47 42.1 35.47 42.03C34.08 41.52 32.84 41.74 32.84 40.79C32.99 38.75 32.48 37.58 33.43 37.36L35.47 36.85C35.47 36.78 35.54 36.71 35.54 36.64L35.4 36.34C34.16 35.69 32.77 35.4 31.31 35.4L27.16 35.4C21.91 35.4 17.68 39.62 17.46 44.87L17.46 49.54L40.94 49.54ZM49.47 40.14L49.47 38.6C46.41 37.66 47.57 38.53 46.7 36.85C46.33 36.27 46.92 35.91 47.72 34.45L46.62 33.35L44.95 34.37C44.44 34.67 44.22 34.3 43.42 34.08C42.76 33.86 42.91 33.14 42.47 31.6L40.94 31.6L40.5 33.57C40.43 34.08 40.06 34.08 39.26 34.45C38.6 34.74 38.24 34.16 36.85 33.35L35.76 34.45L36.78 36.12C37.07 36.64 36.71 36.85 36.49 37.66C36.27 38.31 35.61 38.17 34.08 38.6L34.08 40.28L35.98 40.72C36.2 40.79 36.42 40.94 36.49 41.16C36.56 41.23 36.56 41.23 36.56 41.3C36.64 41.52 36.71 41.81 36.85 42.03C37.22 42.61 36.64 42.98 35.83 44.44L36.93 45.53C38.31 44.73 38.75 44.15 39.33 44.44C41.01 45.31 40.21 44.22 41.08 47.21L42.61 47.21C43.12 45.6 42.91 44.95 43.56 44.73C43.85 44.58 44.15 44.51 44.36 44.36C45.02 44 45.39 44.66 46.77 45.39L47.86 44.29C47.06 42.83 46.48 42.47 46.77 41.89C47.65 40.21 46.55 41.01 49.54 40.14L49.47 40.14Z"></path><path id="Shape" fill-rule="evenodd" class="shp1" d="M29.42 16C33.43 16 36.71 19.28 36.71 23.36C36.71 27.59 33.35 32.7 29.42 32.7C25.48 32.7 22.12 27.59 22.12 23.36C22.12 19.35 25.41 16 29.42 16ZM29.42 17.46C26.21 17.46 23.58 20.08 23.58 23.36C23.58 26.86 26.35 31.24 29.42 31.24C32.48 31.24 35.25 26.86 35.25 23.36C35.25 20.16 32.62 17.46 29.42 17.46Z"></path></g></g></g></g></g></g></svg>