<svg xmlns="http://www.w3.org/2000/svg" viewBox="0 0 67 68" width="67" height="68"><defs><clipPath clipPathUnits="userSpaceOnUse" id="cp1"><path d="M-767 -1889L673 -1889L673 3145L-767 3145Z"></path></clipPath></defs><style>
		tspan { white-space:pre }
		.shp0 { fill: #5e5e5e } 
		.shp1 { fill: none;stroke: #5e5e5e } 
	</style><g id="Welcome - 3 - Static" clip-path="url(#cp1)"><g id="Business Benefits"><g id="Group 11"><g id="Business/Static/Get Taskers"><g id="Group 14"><g id="Unknown-4"><path id="Shape" fill-rule="evenodd" class="shp0" d="M16.99 38.19C16.99 35.64 19.05 33.57 21.6 33.56C24.15 33.55 26.23 35.6 26.25 38.15C26.27 40.71 24.23 42.79 21.68 42.82C19.1 42.84 17.01 40.77 16.99 38.19ZM21.68 35.59C20.23 35.58 19.04 36.74 19.02 38.19C19.02 39.62 20.17 40.78 21.6 40.79C23.02 40.8 24.19 39.66 24.22 38.23C24.24 36.8 23.1 35.63 21.68 35.59Z"></path><path id="Path" class="shp0" d="M15.02 51.22C15.58 51.22 16.04 50.77 16.04 50.21L16.04 47.62C16.05 47.12 16.25 46.64 16.61 46.29C16.97 45.93 17.46 45.74 17.96 45.75L18.61 45.75L20.65 47.75C21.22 48.31 22.14 48.31 22.71 47.75L24.75 45.75L25.4 45.75C25.9 45.74 26.38 45.93 26.75 46.29C27.11 46.64 27.31 47.12 27.32 47.62L27.32 50.21C27.32 50.78 27.78 51.23 28.34 51.23C28.9 51.23 29.36 50.78 29.36 50.21L29.36 47.62C29.34 45.45 27.58 43.71 25.41 43.72L24.35 43.72C24.08 43.72 23.83 43.82 23.64 44.01L21.69 45.92L19.73 44.02C19.54 43.83 19.29 43.73 19.02 43.73L17.96 43.73C15.8 43.71 14.02 45.45 14 47.62L14 50.21C14 50.48 14.11 50.74 14.3 50.93C14.49 51.12 14.75 51.23 15.02 51.22L15.02 51.22Z"></path><path id="Shape" fill-rule="evenodd" class="shp0" d="M46.32 42.82C43.75 42.84 41.65 40.77 41.63 38.19C41.63 35.64 43.69 33.57 46.24 33.56C48.79 33.55 50.87 35.6 50.89 38.15C50.92 40.7 48.87 42.79 46.32 42.82ZM46.32 35.59C44.87 35.58 43.68 36.74 43.66 38.19C43.66 39.62 44.81 40.78 46.24 40.79C47.67 40.8 48.84 39.66 48.86 38.23C48.88 36.8 47.75 35.63 46.32 35.59Z"></path><path id="Path" class="shp0" d="M50.04 43.72L48.98 43.72C48.71 43.72 48.46 43.82 48.27 44.01L46.32 45.92L44.38 44.02C44.19 43.83 43.93 43.73 43.67 43.73L42.61 43.73C40.44 43.72 38.67 45.46 38.66 47.63L38.66 50.22C38.66 50.79 39.11 51.24 39.68 51.24C40.24 51.24 40.7 50.79 40.7 50.22L40.7 47.62C40.7 47.12 40.91 46.64 41.27 46.29C41.63 45.93 42.12 45.74 42.62 45.75L43.27 45.75L45.31 47.75C45.88 48.31 46.79 48.31 47.37 47.75L49.41 45.75L50.05 45.75C51.09 45.74 51.95 46.58 51.96 47.62L51.96 50.21C51.96 50.78 52.42 51.23 52.98 51.23C53.54 51.23 54 50.78 54 50.21L54 47.62C53.99 46.58 53.57 45.58 52.83 44.85C52.08 44.12 51.08 43.71 50.04 43.72L50.04 43.72Z"></path><path id="Shape" fill-rule="evenodd" class="shp0" d="M29.31 17.77C29.31 15.18 31.41 13.08 34 13.08C36.59 13.08 38.69 15.18 38.69 17.77C38.67 20.34 36.57 22.4 34 22.39C31.43 22.4 29.33 20.34 29.31 17.77ZM31.36 17.77C31.46 19.16 32.62 20.22 34.01 20.22C35.4 20.22 36.55 19.16 36.66 17.77C36.64 16.32 35.45 15.16 34 15.17C32.55 15.17 31.38 16.33 31.36 17.77Z"></path><path id="Path" class="shp0" d="M27.35 30.8C27.91 30.8 28.36 30.35 28.36 29.79L28.36 27.2C28.37 26.7 28.58 26.22 28.94 25.86C29.3 25.51 29.78 25.32 30.29 25.33L30.93 25.33L32.97 27.33C33.54 27.89 34.46 27.89 35.03 27.33L37.07 25.33L37.71 25.33C38.22 25.32 38.7 25.51 39.06 25.86C39.42 26.22 39.63 26.7 39.64 27.2L39.64 29.79C39.64 30.36 40.09 30.81 40.66 30.81C41.22 30.81 41.68 30.36 41.68 29.79L41.68 27.2C41.66 25.03 39.89 23.29 37.73 23.3L36.65 23.3C36.39 23.3 36.13 23.4 35.94 23.59L34 25.5L32.06 23.59C31.87 23.4 31.61 23.3 31.35 23.3L30.29 23.3C28.12 23.29 26.35 25.03 26.33 27.2L26.33 29.79C26.34 30.35 26.79 30.8 27.35 30.8L27.35 30.8Z"></path><path id="Path" class="shp0" d="M38.59 34.4C38.27 33.94 37.64 33.82 37.18 34.14C35.6 35.24 34.18 36.56 32.98 38.06C32.45 37.46 31.83 36.96 31.14 36.56C30.83 36.32 30.4 36.28 30.05 36.46C29.69 36.64 29.48 37.01 29.5 37.41C29.52 37.81 29.77 38.16 30.14 38.31C30.95 38.77 31.62 39.45 32.09 40.26C32.26 40.55 32.57 40.74 32.91 40.76L32.95 40.76C33.28 40.76 33.58 40.59 33.77 40.33C35.01 38.56 36.56 37.03 38.34 35.81C38.8 35.49 38.91 34.86 38.59 34.4L38.59 34.4Z"></path></g><path id="Oval" class="shp1" d="M33.5 66C51.45 66 66 51.45 66 33.5C66 15.55 51.45 1 33.5 1C15.55 1 1 15.55 1 33.5C1 51.45 15.55 66 33.5 66Z"></path></g></g></g></g></g></svg>