<svg xmlns="http://www.w3.org/2000/svg" viewBox="0 0 67 67" width="67" height="67"><defs><clipPath clipPathUnits="userSpaceOnUse" id="cp1"><path d="M-767 -1984L673 -1984L673 3050L-767 3050L-767 -1984Z"></path></clipPath></defs><style>
		tspan { white-space:pre }
		.shp0 { fill: #604d8d;stroke: #5e5e5e } 
		.shp1 { fill: #ffffff } 
	</style><path id="Oval Copy 7" class="shp0" d="M33.5 66C51.45 66 66 51.45 66 33.5C66 15.55 51.45 1 33.5 1C15.55 1 1 15.55 1 33.5C1 51.45 15.55 66 33.5 66Z"></path><g id="Clip-Path: Welcome - 3 - Static" clip-path="url(#cp1)"><g id="Welcome - 3 - Static"><g id="Business Benefits"><g id="Group 11"><g id="Business/Static/Technology"><g id="Group 11"><g id="Unknown-1"><path id="Shape" fill-rule="evenodd" class="shp1" d="M25.04 11L42.26 11C43.93 11 45.3 12.36 45.3 14.04L45.3 52.53C45.3 54.2 43.93 55.56 42.26 55.56L25.04 55.56C23.36 55.56 22 54.2 22 52.53L22 14.04C22 12.36 23.36 11 25.04 11ZM25.04 12.01C23.92 12.01 23.01 12.92 23.01 14.04L23.01 52.53C23.01 53.65 23.92 54.55 25.04 54.55L42.26 54.55C43.38 54.55 44.28 53.65 44.28 52.53L44.28 14.04C44.28 12.92 43.38 12.01 42.26 12.01L39.59 12.01C39.63 12 39.66 11.99 39.69 11.97C35.22 11.97 32.32 11.97 27.8 11.97C27.87 11.97 27.94 11.99 27.99 12.01L25.04 12.01ZM27.99 12.01L39.59 12.01C39.46 12.07 39.28 12.18 39.2 12.62C39.1 13.16 38.64 13.55 38.09 13.55L29.69 13.55C29.1 13.55 28.58 13.18 28.39 12.62C28.34 12.47 28.25 12.13 27.99 12.01Z"></path><path id="Shape" fill-rule="evenodd" class="shp1" d="M33.9 28.72C31.52 28.72 29.6 26.8 29.6 24.42C29.6 22.04 31.52 20.12 33.9 20.12C36.28 20.12 38.21 22.04 38.21 24.42C38.21 26.8 36.28 28.72 33.9 28.72ZM33.45 26.42C33.47 26.41 33.48 26.39 33.5 26.38L36.36 23.51C36.56 23.31 36.56 22.99 36.36 22.8C36.17 22.6 35.85 22.6 35.65 22.8L33.05 25.39L31.98 24.32C31.78 24.12 31.46 24.12 31.26 24.32C31.07 24.51 31.07 24.83 31.26 25.03L32.7 26.46C32.89 26.66 33.21 26.66 33.41 26.46C33.43 26.45 33.44 26.43 33.45 26.42Z"></path><path id="Rectangle" class="shp1" d="M25.54 40.88L41.75 40.88C42.03 40.88 42.26 41.11 42.26 41.39L42.26 41.39C42.26 41.67 42.03 41.89 41.75 41.89L25.54 41.89C25.26 41.89 25.04 41.67 25.04 41.39L25.04 41.39C25.04 41.11 25.26 40.88 25.54 40.88Z"></path><path id="Rectangle" class="shp1" d="M25.54 42.9L41.75 42.9C42.03 42.9 42.26 43.13 42.26 43.41L42.26 43.41C42.26 43.69 42.03 43.92 41.75 43.92L25.54 43.92C25.26 43.92 25.04 43.69 25.04 43.41L25.04 43.41C25.04 43.13 25.26 42.9 25.54 42.9Z"></path><path id="Rectangle" class="shp1" d="M25.54 44.93L41.75 44.93C42.03 44.93 42.26 45.16 42.26 45.44L42.26 45.44C42.26 45.72 42.03 45.94 41.75 45.94L25.54 45.94C25.26 45.94 25.04 45.72 25.04 45.44L25.04 45.44C25.04 45.16 25.26 44.93 25.54 44.93Z"></path><path id="Rectangle" class="shp1" d="M31.62 38.85L35.67 38.85C35.95 38.85 36.18 39.08 36.18 39.36L36.18 39.36C36.18 39.64 35.95 39.87 35.67 39.87L31.62 39.87C31.34 39.87 31.12 39.64 31.12 39.36L31.12 39.36C31.12 39.08 31.34 38.85 31.62 38.85Z"></path><path id="Rectangle" class="shp1" d="M30.86 48.98L36.43 48.98C37.13 48.98 37.7 49.55 37.7 50.25L37.7 50.25C37.7 50.95 37.13 51.51 36.43 51.51L30.86 51.51C30.16 51.51 29.6 50.95 29.6 50.25L29.6 50.25C29.6 49.55 30.16 48.98 30.86 48.98Z"></path></g></g></g></g></g></g></g></svg>