<svg xmlns="http://www.w3.org/2000/svg" viewBox="0 0 68 68" width="68" height="68"><defs><clipPath clipPathUnits="userSpaceOnUse" id="cp1"><path d="M-53 -1373L1387 -1373L1387 3661L-53 3661Z"></path></clipPath></defs><style>
		tspan { white-space:pre }
		.shp0 { fill: #ffffff;stroke: #ffffff;stroke-width: 2 } 
		.shp1 { fill: #4d79ac } 
	</style><g id="Welcome - 3 - Active" clip-path="url(#cp1)"><g id="Tasker Benefits"><g id="Tasker/Active/Calendar"><g id="Tasker/Static/Calendar"><g id="Group 14"><path id="Oval" class="shp0" d="M34.5 67C52.45 67 67 52.45 67 34.5C67 16.55 52.45 2 34.5 2C16.55 2 2 16.55 2 34.5C2 52.45 16.55 67 34.5 67Z"></path><g id="Unknown-26"><path id="Shape" fill-rule="evenodd" class="shp1" d="M51.96 24.74L51.96 46.98C51.96 50.08 49.49 52.55 46.4 52.55L22.56 52.55C19.46 52.55 17 50.08 17 46.98L17 24.74C17 21.64 19.46 19.18 22.56 19.18L23.36 19.18L23.36 18.38C23.36 17.03 24.39 16 25.74 16C27.09 16 28.12 17.03 28.12 18.38L28.12 19.18L40.83 19.18L40.83 18.38C40.83 17.03 41.87 16 43.22 16C44.57 16 45.6 17.03 45.6 18.38L45.6 19.18L46.4 19.18C49.49 19.18 51.96 21.64 51.96 24.74ZM42.42 21.56C42.42 22.04 42.74 22.36 43.22 22.36C43.69 22.36 44.01 22.04 44.01 21.56L44.01 18.38C44.01 17.91 43.69 17.59 43.22 17.59C42.74 17.59 42.42 17.91 42.42 18.38L42.42 21.56ZM24.94 18.38L24.94 21.56C24.94 22.04 25.26 22.36 25.74 22.36C26.22 22.36 26.53 22.04 26.53 21.56L26.53 18.38C26.53 17.91 26.22 17.59 25.74 17.59C25.26 17.59 24.94 17.91 24.94 18.38ZM18.59 24.74L18.59 27.12L50.37 27.12L50.37 24.74C50.37 22.51 48.62 20.77 46.4 20.77L45.6 20.77L45.6 21.56C45.6 22.91 44.57 23.94 43.22 23.94C41.87 23.94 40.83 22.91 40.83 21.56L40.83 20.77L28.12 20.77L28.12 21.56C28.12 22.91 27.09 23.94 25.74 23.94C24.39 23.94 23.36 22.91 23.36 21.56L23.36 20.77L22.56 20.77C20.34 20.77 18.59 22.51 18.59 24.74ZM50.37 46.98L50.37 28.71L18.59 28.71L18.59 46.98C18.59 49.21 20.34 50.96 22.56 50.96L46.4 50.96C48.62 50.96 50.37 49.21 50.37 46.98Z"></path></g></g></g></g></g></g></svg>