<svg xmlns="http://www.w3.org/2000/svg" viewBox="0 0 67 68" width="67" height="68"><defs><clipPath clipPathUnits="userSpaceOnUse" id="cp1"><path d="M-54 -1279L1386 -1279L1386 3755L-54 3755Z"></path></clipPath></defs><style>
		tspan { white-space:pre }
		.shp0 { fill: #ffffff } 
		.shp1 { fill: none;stroke: #ffffff;stroke-width: 2 } 
	</style><g id="Welcome - 3 - Static" clip-path="url(#cp1)"><g id="Tasker Benefits"><g id="Tasker/Static/Find Work"><g id="Group 2"><g id="Unknown-23"><path id="Path" class="shp0" d="M16.29 38.09L20.51 35.17C21.61 34.64 22.87 34.54 24.05 34.89L37.72 38.99C38.26 39.14 38.59 39.67 38.49 40.22C38.39 40.76 37.89 41.14 37.33 41.1L28.73 40.56C28.26 40.53 27.86 40.88 27.83 41.34C27.8 41.79 28.15 42.19 28.62 42.22L37.24 42.76L37.41 42.76C38.79 42.76 39.96 41.76 40.16 40.42C40.36 39.08 39.53 37.79 38.22 37.4L24.54 33.31C22.94 32.83 21.21 32.97 19.7 33.71L19.6 33.77L15.46 36.65L11.67 37.55C11.37 37.61 11.13 37.82 11.04 38.11C10.95 38.39 11.02 38.71 11.23 38.92C11.44 39.14 11.75 39.23 12.04 39.16L15.99 38.22C16.1 38.2 16.2 38.16 16.29 38.09L16.29 38.09Z"></path><path id="Path" class="shp0" d="M55.66 37.3C54.94 35.81 53.26 35.1 51.73 35.64L42.99 38.76C42.77 38.83 42.6 38.99 42.5 39.2C42.4 39.4 42.39 39.64 42.46 39.86C42.62 40.32 43.09 40.56 43.53 40.41L52.29 37.29C53.03 37.04 53.85 37.41 54.16 38.15C54.48 38.9 54.2 39.77 53.51 40.17L37.59 49.06C36.65 49.59 35.53 49.66 34.53 49.26C20.12 43.42 19.68 43.43 19.41 43.42C19.3 43.43 19.18 43.45 19.08 43.5L15.15 45.33C14.87 45.46 14.68 45.72 14.65 46.03C14.62 46.34 14.75 46.65 15 46.83C15.24 47.01 15.56 47.05 15.84 46.92L19.51 45.22C20.5 45.53 24.7 47.15 33.92 50.89C35.38 51.48 37.01 51.38 38.39 50.61L54.31 41.7C55.84 40.85 56.43 38.91 55.66 37.3Z"></path><path id="Path" class="shp0" d="M26.76 30.67C27.22 30.59 27.54 30.16 27.47 29.7C27.37 29.13 27.33 28.56 27.33 27.98C27.33 22.29 32 17.67 37.77 17.67C43.54 17.67 48.21 22.29 48.21 27.98C48.22 30.18 47.5 32.33 46.17 34.09C45.98 34.35 45.95 34.7 46.1 34.99C46.24 35.27 46.54 35.46 46.87 35.46C47.14 35.46 47.4 35.33 47.56 35.11C49.11 33.05 49.93 30.55 49.92 27.98C49.91 23.46 47.32 19.32 43.23 17.29C39.14 15.25 34.24 15.66 30.55 18.34C26.86 21.02 25.01 25.52 25.76 29.98C25.85 30.44 26.29 30.75 26.76 30.67Z"></path><path id="Path" class="shp0" d="M37.15 34.24C37.36 34.24 37.56 34.16 37.71 34.01C37.86 33.86 37.94 33.65 37.94 33.44L37.94 32.69C38.51 32.57 39.03 32.29 39.46 31.9C39.92 31.48 40.19 30.88 40.19 30.25C40.19 28.25 38.84 27.64 37.39 27.31C35.94 26.98 35.97 26.41 35.93 26.13C35.95 25.87 36.06 25.62 36.25 25.43C36.42 25.27 36.66 25.19 36.89 25.22C38.28 25.31 38.41 26.07 38.46 26.3C38.5 26.59 38.69 26.84 38.97 26.95C39.25 27.06 39.56 27 39.78 26.8C40 26.6 40.1 26.3 40.02 26.01C39.83 24.91 39.02 24.03 37.94 23.77L37.94 22.88C37.94 22.44 37.59 22.08 37.15 22.08C36.71 22.08 36.35 22.44 36.35 22.88L36.35 23.65C35.9 23.73 35.49 23.95 35.16 24.27C34.64 24.78 34.36 25.49 34.37 26.23C34.42 27.16 34.92 28.37 37.02 28.87C38.59 29.25 38.59 29.68 38.59 30.26C38.59 30.45 38.51 30.63 38.36 30.75C38.07 31.02 37.7 31.17 37.32 31.19C36.94 31.19 35.7 31 35.7 29.72C35.7 29.28 35.35 28.92 34.91 28.92C34.47 28.92 34.11 29.28 34.11 29.72C34.06 31.12 35 32.35 36.35 32.66L36.35 33.48C36.37 33.91 36.72 34.25 37.15 34.24Z"></path></g><path id="Oval" class="shp1" d="M33.5 66C51.45 66 66 51.45 66 33.5C66 15.55 51.45 1 33.5 1C15.55 1 1 15.55 1 33.5C1 51.45 15.55 66 33.5 66Z"></path></g></g></g></g></svg>