<svg xmlns="http://www.w3.org/2000/svg" viewBox="0 0 67 67" width="67" height="67"><defs><clipPath clipPathUnits="userSpaceOnUse" id="cp1"><path d="M-54 -1469L1386 -1469L1386 3565L-54 3565Z"></path></clipPath></defs><style>
		tspan { white-space:pre }
		.shp0 { fill: #ffffff } 
		.shp1 { fill: none;stroke: #ffffff;stroke-width: 2 } 
	</style><g id="Welcome - 3 - Static" clip-path="url(#cp1)"><g id="Tasker Benefits"><g id="Tasker/Static/Rate"><g id="Group 14"><g id="Unknown-2"><path id="Shape" fill-rule="evenodd" class="shp0" d="M54 23.85L54 41.81C54 43.93 52.26 45.66 50.12 45.66L47.3 45.66L43.59 53C43.48 53.2 43.27 53.33 43.04 53.33C42.81 53.33 42.6 53.2 42.49 53L38.78 45.66L17.88 45.66C15.74 45.66 14 43.93 14 41.81L14 23.85C14 21.73 15.74 20 17.88 20L50.12 20C52.26 20 54 21.73 54 23.85ZM52.78 41.81L52.78 23.85C52.78 22.4 51.59 21.21 50.12 21.21L17.88 21.21C16.41 21.21 15.22 22.4 15.22 23.85L15.22 41.81C15.22 43.26 16.41 44.44 17.88 44.44L39.15 44.44C39.39 44.44 39.6 44.57 39.7 44.78L43.04 51.37L46.38 44.78C46.48 44.57 46.69 44.44 46.92 44.44L50.12 44.44C51.59 44.44 52.78 43.26 52.78 41.81Z"></path><path id="Shape" fill-rule="evenodd" class="shp0" d="M29.45 38.16C29.49 38.4 29.4 38.63 29.21 38.77C29.11 38.85 28.99 38.89 28.86 38.89C28.77 38.89 28.68 38.87 28.59 38.82L25.11 36.9L21.63 38.82C21.43 38.93 21.19 38.91 21.01 38.77C20.83 38.63 20.73 38.4 20.77 38.16L21.44 34.1L18.62 31.22C18.46 31.06 18.4 30.81 18.47 30.59C18.54 30.36 18.73 30.2 18.95 30.16L22.84 29.57L24.58 25.87C24.78 25.45 25.44 25.45 25.64 25.87L27.38 29.57L31.27 30.16C31.49 30.2 31.68 30.36 31.75 30.59C31.82 30.81 31.76 31.06 31.6 31.22L28.78 34.1L29.45 38.16ZM27.56 33.99C27.53 33.79 27.59 33.58 27.73 33.44L29.91 31.21L26.9 30.75C26.71 30.72 26.54 30.6 26.46 30.41L25.11 27.55L23.77 30.41C23.68 30.6 23.51 30.72 23.32 30.75L20.31 31.21L22.49 33.44C22.63 33.58 22.69 33.79 22.66 33.99L22.14 37.13L24.83 35.65C24.92 35.6 25.02 35.58 25.11 35.58C25.21 35.58 25.3 35.6 25.39 35.65L28.08 37.13L27.56 33.99Z"></path><path id="Path" class="shp0" d="M47.85 25.56L32.37 25.56C32.04 25.56 31.78 25.8 31.78 26.11C31.78 26.42 32.04 26.67 32.37 26.67L47.85 26.67C48.18 26.67 48.44 26.42 48.44 26.11C48.44 25.8 48.18 25.56 47.85 25.56Z"></path><path id="Path" class="shp0" d="M47.84 30L34.6 30C34.27 30 34 30.25 34 30.56C34 30.86 34.27 31.11 34.6 31.11L47.84 31.11C48.17 31.11 48.44 30.86 48.44 30.56C48.44 30.25 48.17 30 47.84 30Z"></path><path id="Path" class="shp0" d="M47.84 33.44L34.6 33.44C34.27 33.44 34 33.69 34 34C34 34.31 34.27 34.56 34.6 34.56L47.84 34.56C48.17 34.56 48.44 34.31 48.44 34C48.44 33.69 48.17 33.44 47.84 33.44Z"></path><path id="Path" class="shp0" d="M47.85 37.78L32.37 37.78C32.04 37.78 31.78 38.03 31.78 38.33C31.78 38.64 32.04 38.89 32.37 38.89L47.85 38.89C48.18 38.89 48.44 38.64 48.44 38.33C48.44 38.03 48.18 37.78 47.85 37.78Z"></path></g><path id="Oval Copy 7" class="shp1" d="M33.5 66C51.45 66 66 51.45 66 33.5C66 15.55 51.45 1 33.5 1C15.55 1 1 15.55 1 33.5C1 51.45 15.55 66 33.5 66Z"></path></g></g></g></g></svg>