<svg xmlns="http://www.w3.org/2000/svg" viewBox="0 0 68 68" width="68" height="68"><defs><clipPath clipPathUnits="userSpaceOnUse" id="cp1"><path d="M-51 -1279L1389 -1279L1389 3755L-51 3755Z"></path></clipPath></defs><style>
		tspan { white-space:pre }
		.shp0 { fill: #ffffff;stroke: #ffffff;stroke-width: 2 } 
		.shp1 { fill: #4d79ac } 
	</style><g id="Welcome - 3 - Active" clip-path="url(#cp1)"><g id="Tasker Benefits"><g id="Tasker/Active/Find Work"><g id="Tasker/Active/Find Work"><g id="Group 2"><g id="Tasker/Active/Find Work"><g id="Group 16"><path id="Oval" class="shp0" d="M34.5 66C52.45 66 67 51.45 67 33.5C67 15.55 52.45 1 34.5 1C16.55 1 2 15.55 2 33.5C2 51.45 16.55 66 34.5 66Z"></path><g id="Unknown-23"><path id="Path" class="shp1" d="M19.29 38.09L23.51 35.17C24.61 34.64 25.87 34.54 27.05 34.89L40.72 38.99C41.26 39.14 41.59 39.67 41.49 40.22C41.39 40.76 40.89 41.14 40.33 41.1L31.73 40.56C31.26 40.53 30.86 40.88 30.83 41.34C30.8 41.79 31.15 42.19 31.62 42.22L40.24 42.76L40.41 42.76C41.79 42.76 42.96 41.76 43.16 40.42C43.36 39.08 42.53 37.79 41.22 37.4L27.54 33.31C25.94 32.83 24.21 32.97 22.7 33.71L22.6 33.77L18.46 36.65L14.67 37.55C14.37 37.61 14.13 37.82 14.04 38.11C13.95 38.39 14.02 38.71 14.23 38.92C14.44 39.14 14.75 39.23 15.04 39.16L18.99 38.22C19.1 38.2 19.2 38.16 19.29 38.09L19.29 38.09Z"></path><path id="Path" class="shp1" d="M58.66 37.3C57.94 35.81 56.26 35.1 54.74 35.64L45.99 38.76C45.77 38.83 45.6 38.99 45.5 39.2C45.4 39.4 45.39 39.64 45.46 39.86C45.62 40.32 46.09 40.56 46.53 40.41L55.29 37.29C56.03 37.04 56.85 37.41 57.16 38.15C57.48 38.9 57.2 39.77 56.51 40.17L40.59 49.06C39.65 49.59 38.53 49.66 37.53 49.26C23.12 43.42 22.68 43.43 22.41 43.42C22.3 43.43 22.18 43.45 22.08 43.5L18.15 45.33C17.87 45.46 17.68 45.72 17.65 46.03C17.62 46.34 17.75 46.65 18 46.83C18.24 47.01 18.56 47.05 18.84 46.92L22.51 45.22C23.5 45.53 27.7 47.15 36.92 50.89C38.38 51.48 40.01 51.38 41.39 50.61L57.31 41.7C58.84 40.85 59.43 38.91 58.66 37.3Z"></path><path id="Path" class="shp1" d="M29.76 30.67C30.22 30.59 30.54 30.16 30.47 29.7C30.37 29.13 30.33 28.56 30.33 27.98C30.33 22.29 35 17.67 40.77 17.67C46.54 17.67 51.21 22.29 51.21 27.98C51.22 30.18 50.5 32.33 49.17 34.09C48.98 34.35 48.95 34.7 49.1 34.99C49.24 35.27 49.54 35.46 49.87 35.46C50.14 35.46 50.4 35.33 50.56 35.11C52.11 33.05 52.93 30.55 52.92 27.98C52.91 23.46 50.32 19.32 46.23 17.29C42.14 15.25 37.24 15.66 33.55 18.34C29.86 21.02 28.01 25.52 28.76 29.98C28.85 30.44 29.29 30.75 29.76 30.67Z"></path><path id="Path" class="shp1" d="M40.15 34.24C40.36 34.24 40.56 34.16 40.71 34.01C40.86 33.86 40.94 33.65 40.94 33.44L40.94 32.69C41.51 32.57 42.03 32.29 42.46 31.9C42.92 31.48 43.19 30.88 43.19 30.25C43.19 28.25 41.84 27.64 40.39 27.31C38.94 26.98 38.97 26.41 38.93 26.13C38.95 25.87 39.06 25.62 39.25 25.43C39.42 25.27 39.66 25.19 39.89 25.22C41.28 25.31 41.41 26.07 41.46 26.3C41.5 26.59 41.69 26.84 41.97 26.95C42.25 27.06 42.56 27 42.78 26.8C43 26.6 43.1 26.3 43.02 26.01C42.83 24.91 42.02 24.03 40.94 23.77L40.94 22.88C40.94 22.44 40.59 22.08 40.15 22.08C39.71 22.08 39.35 22.44 39.35 22.88L39.35 23.65C38.9 23.73 38.49 23.95 38.16 24.27C37.64 24.78 37.36 25.49 37.37 26.23C37.42 27.16 37.92 28.37 40.02 28.87C41.59 29.25 41.59 29.68 41.59 30.26C41.59 30.45 41.51 30.63 41.36 30.75C41.07 31.02 40.7 31.17 40.32 31.19C39.94 31.19 38.7 31 38.7 29.72C38.7 29.28 38.34 28.92 37.91 28.92C37.47 28.92 37.11 29.28 37.11 29.72C37.06 31.12 38 32.35 39.35 32.66L39.35 33.48C39.37 33.91 39.72 34.25 40.15 34.24Z"></path></g></g></g></g></g></g></g></g></svg>