<svg xmlns="http://www.w3.org/2000/svg" viewBox="0 0 67 68" width="67" height="68"><defs><clipPath clipPathUnits="userSpaceOnUse" id="cp1"><path d="M-54 -1373L1386 -1373L1386 3661L-54 3661Z"></path></clipPath></defs><style>
		tspan { white-space:pre }
		.shp0 { fill: #ffffff } 
		.shp1 { fill: none;stroke: #ffffff;stroke-width: 2 } 
	</style><g id="Welcome - 3 - Static" clip-path="url(#cp1)"><g id="Tasker Benefits"><g id="Tasker/Static/Calendar"><g id="Group 14"><g id="Unknown-26"><path id="Shape" fill-rule="evenodd" class="shp0" d="M50.96 24.74L50.96 46.98C50.96 50.08 48.49 52.55 45.4 52.55L21.56 52.55C18.46 52.55 16 50.08 16 46.98L16 24.74C16 21.64 18.46 19.18 21.56 19.18L22.36 19.18L22.36 18.38C22.36 17.03 23.39 16 24.74 16C26.09 16 27.12 17.03 27.12 18.38L27.12 19.18L39.83 19.18L39.83 18.38C39.83 17.03 40.87 16 42.22 16C43.57 16 44.6 17.03 44.6 18.38L44.6 19.18L45.4 19.18C48.49 19.18 50.96 21.64 50.96 24.74ZM41.42 21.56C41.42 22.04 41.74 22.36 42.22 22.36C42.69 22.36 43.01 22.04 43.01 21.56L43.01 18.38C43.01 17.91 42.69 17.59 42.22 17.59C41.74 17.59 41.42 17.91 41.42 18.38L41.42 21.56ZM23.94 18.38L23.94 21.56C23.94 22.04 24.26 22.36 24.74 22.36C25.22 22.36 25.53 22.04 25.53 21.56L25.53 18.38C25.53 17.91 25.22 17.59 24.74 17.59C24.26 17.59 23.94 17.91 23.94 18.38ZM17.59 24.74L17.59 27.12L49.37 27.12L49.37 24.74C49.37 22.51 47.62 20.77 45.4 20.77L44.6 20.77L44.6 21.56C44.6 22.91 43.57 23.94 42.22 23.94C40.87 23.94 39.83 22.91 39.83 21.56L39.83 20.77L27.12 20.77L27.12 21.56C27.12 22.91 26.09 23.94 24.74 23.94C23.39 23.94 22.36 22.91 22.36 21.56L22.36 20.77L21.56 20.77C19.34 20.77 17.59 22.51 17.59 24.74ZM49.37 46.98L49.37 28.71L17.59 28.71L17.59 46.98C17.59 49.21 19.34 50.96 21.56 50.96L45.4 50.96C47.62 50.96 49.37 49.21 49.37 46.98Z"></path></g><path id="Oval" class="shp1" d="M33.5 67C51.45 67 66 52.45 66 34.5C66 16.55 51.45 2 33.5 2C15.55 2 1 16.55 1 34.5C1 52.45 15.55 67 33.5 67Z"></path></g></g></g></g></svg>