<svg xmlns="http://www.w3.org/2000/svg" viewBox="0 0 68 67" width="68" height="67"><defs><clipPath clipPathUnits="userSpaceOnUse" id="cp1"><path d="M-53 -1464L1387 -1464L1387 3570L-53 3570Z"></path></clipPath></defs><style>
		tspan { white-space:pre }
		.shp0 { fill: #ffffff;stroke: #ffffff;stroke-width: 2 } 
		.shp1 { fill: #4d79ac } 
	</style><g id="Welcome - 3 - Active" clip-path="url(#cp1)"><g id="Tasker Benefits"><g id="Tasker/Active/Rate Experience"><g id="Tasker/Active/Rate Experience"><path id="Oval Copy 7" class="shp0" d="M34.5 66C52.45 66 67 51.45 67 33.5C67 15.55 52.45 1 34.5 1C16.55 1 2 15.55 2 33.5C2 51.45 16.55 66 34.5 66Z"></path><g id="Unknown-2"><path id="Shape" fill-rule="evenodd" class="shp1" d="M55 23.85L55 41.81C55 43.93 53.26 45.66 51.12 45.66L48.3 45.66L44.59 53C44.48 53.2 44.27 53.33 44.04 53.33C43.81 53.33 43.6 53.2 43.49 53L39.78 45.66L18.88 45.66C16.74 45.66 15 43.93 15 41.81L15 23.85C15 21.73 16.74 20 18.88 20L51.12 20C53.26 20 55 21.73 55 23.85ZM53.78 41.81L53.78 23.85C53.78 22.4 52.59 21.21 51.12 21.21L18.88 21.21C17.41 21.21 16.22 22.4 16.22 23.85L16.22 41.81C16.22 43.26 17.41 44.44 18.88 44.44L40.15 44.44C40.39 44.44 40.6 44.57 40.7 44.78L44.04 51.37L47.38 44.78C47.48 44.57 47.69 44.44 47.92 44.44L51.12 44.44C52.59 44.44 53.78 43.26 53.78 41.81L53.78 41.81Z"></path><path id="Shape" fill-rule="evenodd" class="shp1" d="M30.45 38.16C30.49 38.4 30.4 38.63 30.21 38.77C30.11 38.85 29.99 38.89 29.86 38.89C29.77 38.89 29.68 38.87 29.59 38.82L26.11 36.9L22.63 38.82C22.43 38.93 22.19 38.91 22.01 38.77C21.83 38.63 21.73 38.4 21.77 38.16L22.44 34.1L19.62 31.22C19.46 31.06 19.4 30.81 19.47 30.59C19.54 30.36 19.73 30.2 19.95 30.16L23.84 29.57L25.58 25.87C25.78 25.45 26.44 25.45 26.64 25.87L28.38 29.57L32.27 30.16C32.49 30.2 32.68 30.36 32.75 30.59C32.82 30.81 32.76 31.06 32.6 31.22L29.78 34.1L30.45 38.16ZM28.56 33.99C28.53 33.79 28.59 33.58 28.73 33.44L30.91 31.21L27.9 30.75C27.71 30.72 27.54 30.6 27.46 30.41L26.11 27.55L24.77 30.41C24.68 30.6 24.51 30.72 24.32 30.75L21.31 31.21L23.49 33.44C23.63 33.58 23.69 33.79 23.66 33.99L23.14 37.13L25.83 35.65C25.92 35.6 26.02 35.57 26.11 35.57C26.21 35.57 26.3 35.6 26.39 35.65L29.08 37.13L28.56 33.99Z"></path><path id="Path" class="shp1" d="M48.85 25.56L33.37 25.56C33.04 25.56 32.78 25.8 32.78 26.11C32.78 26.42 33.04 26.67 33.37 26.67L48.85 26.67C49.18 26.67 49.44 26.42 49.44 26.11C49.44 25.8 49.18 25.56 48.85 25.56Z"></path><path id="Path" class="shp1" d="M48.84 30L35.6 30C35.27 30 35 30.25 35 30.56C35 30.86 35.27 31.11 35.6 31.11L48.84 31.11C49.17 31.11 49.44 30.86 49.44 30.56C49.44 30.25 49.17 30 48.84 30Z"></path><path id="Path" class="shp1" d="M48.84 33.44L35.6 33.44C35.27 33.44 35 33.69 35 34C35 34.31 35.27 34.56 35.6 34.56L48.84 34.56C49.17 34.56 49.44 34.31 49.44 34C49.44 33.69 49.17 33.44 48.84 33.44Z"></path><path id="Path" class="shp1" d="M48.85 37.78L33.37 37.78C33.04 37.78 32.78 38.03 32.78 38.33C32.78 38.64 33.04 38.89 33.37 38.89L48.85 38.89C49.18 38.89 49.44 38.64 49.44 38.33C49.44 38.03 49.18 37.78 48.85 37.78Z"></path></g></g></g></g></g></svg>